<!--?xml version="1.0" standalone="no"?-->
              <svg id="sw-js-blob-svg" viewBox="10 0 90 90" xmlns="http://www.w3.org/2000/svg" version="1.1">
                    <defs> 
                        <linearGradient id="sw-gradient" x1="0" x2="1" y1="1" y2="0">
                            <stop id="stop1" stop-color="rgba(248, 117, 55, 1)" offset="0%"></stop>
                            <stop id="stop2" stop-color="rgba(251, 168, 31, 1)" offset="100%"></stop>
                        </linearGradient>
                    </defs>
                <path fill="url(#sw-gradient)" d="M20.9,-35.5C27.6,-32.4,33.9,-27.8,36.6,-21.6C39.3,-15.5,38.3,-7.7,37.3,-0.6C36.3,6.6,35.3,13.2,31.6,17.6C28,22.1,21.7,24.3,15.9,25C10.2,25.6,5.1,24.7,0.1,24.5C-4.9,24.4,-9.8,24.9,-16.4,24.8C-23,24.6,-31.2,23.7,-33.9,19.5C-36.6,15.2,-33.7,7.6,-30.6,1.8C-27.6,-4.1,-24.4,-8.2,-23.1,-14.9C-21.9,-21.6,-22.6,-30.9,-19,-36C-15.5,-41,-7.8,-41.7,-0.3,-41.1C7.1,-40.6,14.2,-38.7,20.9,-35.5Z" width="100%" height="100%" transform="translate(50 50)" style="transition: all 0.3s ease 0s;" stroke-width="0" stroke="url(#sw-gradient)"></path>
              </svg>