<svg id="visual" viewBox="0 0 900 600" width="900" height="600" xmlns="http://www.w3.org/2000/svg" xmlns:xlink="http://www.w3.org/1999/xlink" version="1.1"><g transform="translate(443.4574995450472 316.96335372213497)"><path d="M176.7 -237.3C214.2 -215.9 219.8 -144.6 238.6 -79.3C257.4 -14 289.4 45.2 271.3 84.1C253.1 123 184.7 141.6 131.2 166.9C77.6 192.1 38.8 224.1 0.8 223C-37.2 221.9 -74.5 187.8 -104.2 154.8C-133.9 121.8 -156.1 89.9 -186.5 48.3C-216.8 6.8 -255.4 -44.3 -262.4 -104.6C-269.4 -164.8 -244.9 -234.1 -195.9 -251.8C-146.9 -269.6 -73.5 -235.8 -2 -233.1C69.6 -230.4 139.1 -258.8 176.7 -237.3" fill="#BB004B"></path></g></svg>