<svg id="visual" viewBox="0 0 1920 1920" width="1920" height="1920" xmlns="http://www.w3.org/2000/svg" xmlns:xlink="http://www.w3.org/1999/xlink" version="1.1"><path d="M0 270L29.2 308.3C58.3 346.7 116.7 423.3 174.8 474.5C233 525.7 291 551.3 349.2 557.8C407.3 564.3 465.7 551.7 523.8 513.3C582 475 640 411 698.2 353.3C756.3 295.7 814.7 244.3 872.8 247.5C931 250.7 989 308.3 1047.2 359.5C1105.3 410.7 1163.7 455.3 1221.8 432.8C1280 410.3 1338 320.7 1396.2 279.2C1454.3 237.7 1512.7 244.3 1570.8 263.7C1629 283 1687 315 1745.2 318.2C1803.3 321.3 1861.7 295.7 1890.8 282.8L1920 270L1920 0L1890.8 0C1861.7 0 1803.3 0 1745.2 0C1687 0 1629 0 1570.8 0C1512.7 0 1454.3 0 1396.2 0C1338 0 1280 0 1221.8 0C1163.7 0 1105.3 0 1047.2 0C989 0 931 0 872.8 0C814.7 0 756.3 0 698.2 0C640 0 582 0 523.8 0C465.7 0 407.3 0 349.2 0C291 0 233 0 174.8 0C116.7 0 58.3 0 29.2 0L0 0Z" fill="#a0c6fe"></path><path d="M0 500L29.2 528.8C58.3 557.7 116.7 615.3 174.8 657C233 698.7 291 724.3 349.2 727.5C407.3 730.7 465.7 711.3 523.8 676.2C582 641 640 590 698.2 548.5C756.3 507 814.7 475 872.8 471.7C931 468.3 989 493.7 1047.2 538.3C1105.3 583 1163.7 647 1221.8 634.3C1280 621.7 1338 532.3 1396.2 490.8C1454.3 449.3 1512.7 455.7 1570.8 481.2C1629 506.7 1687 551.3 1745.2 580.2C1803.3 609 1861.7 622 1890.8 628.5L1920 635L1920 268L1890.8 280.8C1861.7 293.7 1803.3 319.3 1745.2 316.2C1687 313 1629 281 1570.8 261.7C1512.7 242.3 1454.3 235.7 1396.2 277.2C1338 318.7 1280 408.3 1221.8 430.8C1163.7 453.3 1105.3 408.7 1047.2 357.5C989 306.3 931 248.7 872.8 245.5C814.7 242.3 756.3 293.7 698.2 351.3C640 409 582 473 523.8 511.3C465.7 549.7 407.3 562.3 349.2 555.8C291 549.3 233 523.7 174.8 472.5C116.7 421.3 58.3 344.7 29.2 306.3L0 268Z" fill="#8bb9fe"></path><path d="M0 750L29.2 782C58.3 814 116.7 878 174.8 897.2C233 916.3 291 890.7 349.2 868.2C407.3 845.7 465.7 826.3 523.8 823.2C582 820 640 833 698.2 817C756.3 801 814.7 756 872.8 730.3C931 704.7 989 698.3 1047.2 743.2C1105.3 788 1163.7 884 1221.8 880.8C1280 877.7 1338 775.3 1396.2 724.2C1454.3 673 1512.7 673 1570.8 714.7C1629 756.3 1687 839.7 1745.2 862C1803.3 884.3 1861.7 845.7 1890.8 826.3L1920 807L1920 633L1890.8 626.5C1861.7 620 1803.3 607 1745.2 578.2C1687 549.3 1629 504.7 1570.8 479.2C1512.7 453.7 1454.3 447.3 1396.2 488.8C1338 530.3 1280 619.7 1221.8 632.3C1163.7 645 1105.3 581 1047.2 536.3C989 491.7 931 466.3 872.8 469.7C814.7 473 756.3 505 698.2 546.5C640 588 582 639 523.8 674.2C465.7 709.3 407.3 728.7 349.2 725.5C291 722.3 233 696.7 174.8 655C116.7 613.3 58.3 555.7 29.2 526.8L0 498Z" fill="#75abfd"></path><path d="M0 1191L29.2 1200.7C58.3 1210.3 116.7 1229.7 174.8 1265C233 1300.3 291 1351.7 349.2 1364.5C407.3 1377.3 465.7 1351.7 523.8 1306.8C582 1262 640 1198 698.2 1226.8C756.3 1255.7 814.7 1377.3 872.8 1447.7C931 1518 989 1537 1047.2 1498.5C1105.3 1460 1163.7 1364 1221.8 1296.8C1280 1229.7 1338 1191.3 1396.2 1175.3C1454.3 1159.3 1512.7 1165.7 1570.8 1232.8C1629 1300 1687 1428 1745.2 1428C1803.3 1428 1861.7 1300 1890.8 1236L1920 1172L1920 805L1890.8 824.3C1861.7 843.7 1803.3 882.3 1745.2 860C1687 837.7 1629 754.3 1570.8 712.7C1512.7 671 1454.3 671 1396.2 722.2C1338 773.3 1280 875.7 1221.8 878.8C1163.7 882 1105.3 786 1047.2 741.2C989 696.3 931 702.7 872.8 728.3C814.7 754 756.3 799 698.2 815C640 831 582 818 523.8 821.2C465.7 824.3 407.3 843.7 349.2 866.2C291 888.7 233 914.3 174.8 895.2C116.7 876 58.3 812 29.2 780L0 748Z" fill="#649af2"></path><path d="M0 1921L29.2 1921C58.3 1921 116.7 1921 174.8 1921C233 1921 291 1921 349.2 1921C407.3 1921 465.7 1921 523.8 1921C582 1921 640 1921 698.2 1921C756.3 1921 814.7 1921 872.8 1921C931 1921 989 1921 1047.2 1921C1105.3 1921 1163.7 1921 1221.8 1921C1280 1921 1338 1921 1396.2 1921C1454.3 1921 1512.7 1921 1570.8 1921C1629 1921 1687 1921 1745.2 1921C1803.3 1921 1861.7 1921 1890.8 1921L1920 1921L1920 1170L1890.8 1234C1861.7 1298 1803.3 1426 1745.2 1426C1687 1426 1629 1298 1570.8 1230.8C1512.7 1163.7 1454.3 1157.3 1396.2 1173.3C1338 1189.3 1280 1227.7 1221.8 1294.8C1163.7 1362 1105.3 1458 1047.2 1496.5C989 1535 931 1516 872.8 1445.7C814.7 1375.3 756.3 1253.7 698.2 1224.8C640 1196 582 1260 523.8 1304.8C465.7 1349.7 407.3 1375.3 349.2 1362.5C291 1349.7 233 1298.3 174.8 1263C116.7 1227.7 58.3 1208.3 29.2 1198.7L0 1189Z" fill="#548ae6"></path></svg>