<svg id="visual" viewBox="0 0 900 900" width="900" height="900" xmlns="http://www.w3.org/2000/svg" xmlns:xlink="http://www.w3.org/1999/xlink" version="1.1"><path d="M800 900L773 900L773 818L638 818L638 736L800 736L800 655L665 655L665 573L809 573L809 491L746 491L746 409L629 409L629 327L692 327L692 245L773 245L773 164L710 164L710 82L728 82L728 0L900 0L900 82L900 82L900 164L900 164L900 245L900 245L900 327L900 327L900 409L900 409L900 491L900 491L900 573L900 573L900 655L900 655L900 736L900 736L900 818L900 818L900 900L900 900Z" fill="#ffffff"></path><path d="M665 900L656 900L656 818L557 818L557 736L710 736L710 655L548 655L548 573L746 573L746 491L602 491L602 409L566 409L566 327L611 327L611 245L710 245L710 164L584 164L584 82L611 82L611 0L729 0L729 82L711 82L711 164L774 164L774 245L693 245L693 327L630 327L630 409L747 409L747 491L810 491L810 573L666 573L666 655L801 655L801 736L639 736L639 818L774 818L774 900L801 900Z" fill="#b9b9b9"></path><path d="M602 900L566 900L566 818L458 818L458 736L566 736L566 655L485 655L485 573L638 573L638 491L539 491L539 409L476 409L476 327L476 327L476 245L566 245L566 164L512 164L512 82L548 82L548 0L612 0L612 82L585 82L585 164L711 164L711 245L612 245L612 327L567 327L567 409L603 409L603 491L747 491L747 573L549 573L549 655L711 655L711 736L558 736L558 818L657 818L657 900L666 900Z" fill="#777777"></path><path d="M395 900L377 900L377 818L242 818L242 736L161 736L161 655L323 655L323 573L206 573L206 491L386 491L386 409L341 409L341 327L170 327L170 245L170 245L170 164L323 164L323 82L269 82L269 0L549 0L549 82L513 82L513 164L567 164L567 245L477 245L477 327L477 327L477 409L540 409L540 491L639 491L639 573L486 573L486 655L567 655L567 736L459 736L459 818L567 818L567 900L603 900Z" fill="#3b3b3b"></path><path d="M0 900L0 900L0 818L0 818L0 736L0 736L0 655L0 655L0 573L0 573L0 491L0 491L0 409L0 409L0 327L0 327L0 245L0 245L0 164L0 164L0 82L0 82L0 0L270 0L270 82L324 82L324 164L171 164L171 245L171 245L171 327L342 327L342 409L387 409L387 491L207 491L207 573L324 573L324 655L162 655L162 736L243 736L243 818L378 818L378 900L396 900Z" fill="#000000"></path></svg>